#!OML:ASF F:\VICON\USERDATA\INSTALL\rory3\rory3.ASF
:FULLY-SPECIFIED
:DEGREES
321
root -0.639405 16.4967 -15.9938 -167.829 -9.7645 -179.177
lowerback -1.26634 0.548596 -4.42277
upperback -0.156109 0.707053 3.6294
thorax 0.448003 0.316988 6.26598
lowerneck -14.3215 -2.6729 -2.9659
upperneck 26.0123 -5.03546 2.56739
head 10.8875 -2.72565 0.660872
rclavicle 1.47101e-014 -7.15625e-015
rhumerus 30.9236 40.3641 -54.889
rradius 79.5747
rwrist 22.7747
rhand -17.9146 76.5863
rfingers 7.12502
rthumb 8.35276 46.7714
lclavicle 1.47101e-014 -7.15625e-015
lhumerus 73.3774 -52.1613 16.5751
lradius 96.3809
lwrist -49.441
lhand -41.804 23.1244
lfingers 7.12502
lthumb -14.7064 52.5827
rfemur -67.9831 12.0636 6.06619
rtibia 40.8357
rfoot -45.9888 -18.684
rtoes 63.063
lfemur -27.696 -3.82156 -29.0543
ltibia 41.8052
lfoot -25.0005 21.3316
ltoes -6.25935
322
root -0.623817 16.3575 -16.0806 -167.484 -9.17529 -179.924
lowerback -1.26087 0.636712 -5.5995
upperback -0.234793 0.845093 3.75111
thorax 0.324358 0.393529 7.07548
lowerneck -14.5408 -2.68352 -3.35292
upperneck 25.8905 -4.85582 2.42882
head 10.8858 -2.68201 0.700437
rclavicle 1.0138e-014 -5.56597e-015
rhumerus 31.9403 42.7363 -50.6303
rradius 77.9345
rwrist 26.1754
rhand -22.0142 72.0685
rfingers 7.12502
rthumb 4.39502 42.1341
lclavicle 1.0138e-014 -5.56597e-015
lhumerus 72.0407 -52.4024 15.7975
lradius 95.1598
lwrist -50.7367
lhand -41.5894 19.0679
lfingers 7.12502
lthumb -14.4996 48.5413
rfemur -68.7266 11.668 5.45032
rtibia 40.6825
rfoot -45.6004 -18.6367
rtoes 63.2944
lfemur -27.8816 -3.5406 -29.9686
ltibia 42.3341
lfoot -27.2023 21.2593
ltoes -4.23797
323
root -0.656123 16.2747 -16.2239 -166.43 -9.8468 -180.262
lowerback -2.52445 0.271295 -5.2954
upperback -0.557056 0.394574 3.72452
thorax 0.776625 0.156651 6.87467
lowerneck -14.8239 -2.5636 -3.52177
upperneck 25.9985 -4.59841 2.3536
head 10.9755 -2.58339 0.732801
rclavicle 9.34288e-015 -3.10104e-014
rhumerus 33.4725 44.3897 -46.2184
rradius 76.0581
rwrist 28.9361
rhand -23.4889 68.2784
rfingers 7.12502
rthumb 2.97093 38.3193
lclavicle 9.34288e-015 -3.10104e-014
lhumerus 70.493 -52.8825 14.6535
lradius 93.987
lwrist -51.9921
lhand -41.1741 14.8072
lfingers 7.12502
lthumb -14.0994 44.3089
rfemur -69.3088 8.42755 7.14285
rtibia 40.6808
rfoot -42.3691 -21.0232
rtoes 63.4079
lfemur -28.5147 -4.18359 -30.3972
ltibia 42.8889
lfoot -29.0112 20.9826
ltoes -2.48553
324
root -0.644957 16.1919 -16.3678 -165.282 -10.1901 -181.391
lowerback -3.14201 -0.0254068 -6.10789
upperback -1.17565 0.0517405 3.42733
thorax 0.534428 0.0124011 7.019
lowerneck -14.6106 -2.50533 -3.74885
upperneck 25.9953 -4.48843 2.39425
head 10.9349 -2.55985 0.803686
rclavicle 1.43125e-014 9.54166e-015
rhumerus 31.5517 45.304 -45.651
rradius 74.5392
rwrist 31.4487
rhand -23.1437 64.334
rfingers 7.12502
rthumb 3.30435 34.3799
lclavicle 1.43125e-014 9.54166e-015
lhumerus 68.9513 -53.7228 13.1706
lradius 92.69
lwrist -52.7572
lhand -40.5938 9.72515
lfingers 7.12502
lthumb -13.5401 39.2649
rfemur -70.2921 7.22205 6.28485
rtibia 40.9352
rfoot -42.5332 -18.8743
rtoes 63.8782
lfemur -29.258 -4.62165 -31.4801
ltibia 43.3941
lfoot -29.4868 21.1983
ltoes -3.36995
325
root -0.637807 16.1316 -16.4929 -164.397 -10.8524 -182.039
lowerback -3.0239 -0.250626 -6.01549
upperback -1.94398 -0.278403 3.1207
thorax -0.275499 -0.108022 6.62931
lowerneck -14.2777 -2.53777 -3.94542
upperneck 25.8897 -4.50459 2.40136
head 10.8356 -2.5943 0.842442
rclavicle 1.59028e-015 9.54166e-015
rhumerus 30.3346 46.6165 -44.0218
rradius 72.6661
rwrist 30.7383
rhand -21.6928 62.1975
rfingers 7.12502
rthumb 4.7054 32.2698
lclavicle 1.59028e-015 9.54166e-015
lhumerus 67.5853 -54.7032 11.4452
lradius 91.1713
lwrist -53.0403
lhand -44.1547 -6.68614
lfingers 7.12502
lthumb -16.9701 22.5925
rfemur -70.9663 6.33891 5.58702
rtibia 41.2142
rfoot -42.8449 -17.6884
rtoes 64.0535
lfemur -29.9654 -5.17952 -31.9126
ltibia 44.042
lfoot -29.7382 20.9116
ltoes -3.45584
326
root -0.620481 16.0967 -16.6391 -163.668 -11.5719 -182.37
lowerback -2.91294 -0.385654 -5.59929
upperback -2.63742 -0.504703 2.80581
thorax -1.02464 -0.192852 6.05528
lowerneck -14.5647 -2.55371 -4.05802
upperneck 26.4019 -4.61705 2.62617
head 11.0971 -2.64311 0.916699
rclavicle 5.86415e-015 -1.74931e-014
rhumerus 28.2293 47.455 -43.3855
rradius 70.6385
rwrist 29.513
rhand -20.1751 60.4377
rfingers 7.12502
rthumb 6.17078 30.5475
lclavicle 5.86415e-015 -1.74931e-014
lhumerus 66.0911 -55.716 9.88318
lradius 89.3359
lwrist -53.4745
lhand -39.6479 -0.365529
lfingers 7.12502
lthumb -12.6284 29.2327
rfemur -71.4193 6.35612 4.47875
rtibia 41.5961
rfoot -43.7532 -15.7021
rtoes 64.3173
lfemur -30.4825 -5.67177 -31.9122
ltibia 44.6805
lfoot -29.8549 20.4855
ltoes -3.86295
327
root -0.56499 16.0814 -16.8136 -163.286 -12.0379 -182.13
lowerback -2.79658 -0.318588 -5.19251
upperback -3.1514 -0.459717 2.67576
thorax -1.63139 -0.156564 5.69126
lowerneck -14.9382 -2.71407 -4.0251
upperneck 26.6425 -4.82228 2.53628
head 11.2678 -2.73831 0.841583
rclavicle 1.2921e-015 -2.8625e-014
rhumerus 25.9264 48.662 -42.6149
rradius 68.6199
rwrist 26.6897
rhand -20.0505 57.6779
rfingers 7.12502
rthumb 6.29109 27.7913
lclavicle 1.2921e-015 -2.8625e-014
lhumerus 64.6939 -56.7722 8.2497
lradius 87.2241
lwrist -53.9696
lhand -38.4748 -3.40686
lfingers 7.12502
lthumb -11.4972 26.2578
rfemur -71.7871 8.899 2.03921
rtibia 42.0412
rfoot -46.6974 -9.31745
rtoes 64.5782
lfemur -30.737 -5.7168 -31.1553
ltibia 45.1703
lfoot -29.8154 19.9895
ltoes -4.96368
328
root -0.553232 16.069 -16.9625 -162.834 -12.4359 -182.99
lowerback -2.15215 -0.223498 -5.16734
upperback -3.6147 -0.384509 2.12467
thorax -2.48658 -0.0920952 5.10792
lowerneck -15.7614 -3.03778 -4.362
upperneck 27.1598 -5.28661 2.87893
head 11.671 -2.92764 0.937867
rclavicle 1.799e-014 1.59028e-015
rhumerus 23.5028 49.3239 -41.9601
rradius 66.4111
rwrist 24.4149
rhand -20.7191 54.6201
rfingers 7.12502
rthumb 5.64557 24.7153
lclavicle 1.799e-014 1.59028e-015
lhumerus 63.5973 -57.6328 6.39172
lradius 84.8217
lwrist -54.2743
lhand -37.6528 -5.64222
lfingers 7.12502
lthumb -10.7044 24.0651
rfemur -71.7576 8.74851 0.948466
rtibia 42.5223
rfoot -46.2204 -9.83288
rtoes 64.4185
lfemur -30.4384 -6.14491 -31.7628
ltibia 45.2382
lfoot -29.5246 19.8673
ltoes -7.40549
329
root -0.561996 16.1053 -17.1586 -162.557 -13.6061 -183.407
lowerback -3.15554 -0.430591 -4.80135
upperback -3.11549 -0.593309 2.0462
thorax -1.37901 -0.241567 4.80264
lowerneck -17.2239 -3.42946 -4.73317
upperneck 27.0764 -5.4919 2.77498
head 11.9536 -2.99815 0.91177
rclavicle -3.18055e-015 1.35174e-014
rhumerus 21.641 48.6786 -40.6452
rradius 63.9391
rwrist 23.2668
rhand -22.9163 53.616
rfingers 7.12502
rthumb 3.52389 23.6654
lclavicle -3.18055e-015 1.35174e-014
lhumerus 61.8526 -56.8582 5.78133
lradius 81.627
lwrist -53.3404
lhand -39.663 -10.8289
lfingers 7.12502
lthumb -12.6429 18.7685
rfemur -70.8377 7.65875 1.2302
rtibia 42.8527
rfoot -44.4514 -11.3503
rtoes 64.3603
lfemur -29.4675 -7.05029 -31.7519
ltibia 44.8785
lfoot -29.0233 19.489
ltoes -8.80451
330
root -0.527641 16.154 -17.2976 -162.348 -13.8777 -183.703
lowerback -2.86342 -0.325339 -5.0114
upperback -3.10235 -0.456923 2.07345
thorax -1.54499 -0.162133 4.95533
lowerneck -17.967 -3.73467 -4.98024
upperneck 26.7718 -5.59218 2.4426
head 11.9879 -3.0618 0.807216
rclavicle -1.16289e-014 -3.57812e-014
rhumerus 19.0002 47.6778 -40.2517
rradius 61.05
rwrist 23.5218
rhand -25.7626 54.2386
rfingers 7.12502
rthumb 0.775038 24.2603
lclavicle -1.16289e-014 -3.57812e-014
lhumerus 61.2139 -57.2286 3.44133
lradius 79.6123
lwrist -51.0589
lhand -37.9376 -9.04343
lfingers 7.12502
lthumb -10.979 20.6495
rfemur -70.4112 9.36519 -0.435407
rtibia 42.91
rfoot -45.1796 -8.82833
rtoes 64.6231
lfemur -28.7315 -7.18322 -31.556
ltibia 44.1198
lfoot -28.0748 18.7729
ltoes -7.92835
331
root -0.557077 16.2509 -17.4617 -161.822 -14.7554 -182.618
lowerback -3.17667 -0.241553 -2.8192
upperback -3.7393 -0.428197 2.22503
thorax -2.03379 -0.194147 3.87331
lowerneck -18.162 -3.86176 -5.02235
upperneck 26.6027 -5.55933 1.98055
head 11.9468 -3.09369 0.64719
rclavicle -1.64991e-014 3.97569e-015
rhumerus 15.3366 47.7059 -40.6686
rradius 58.7246
rwrist 22.3858
rhand -24.4135 53.8452
rfingers 7.12502
rthumb 2.07804 23.8755
lclavicle -1.64991e-014 3.97569e-015
lhumerus 59.1031 -58.4199 2.56756
lradius 77.1845
lwrist -48.8762
lhand -37.6432 -8.53424
lfingers 7.12502
lthumb -10.6951 21.1735
rfemur -69.7651 8.34606 1.82978
rtibia 42.7244
rfoot -42.7044 -12.2129
rtoes 64.616
lfemur -28.3973 -7.16057 -30.0531
ltibia 43.0419
lfoot -26.3263 18.6095
ltoes -10.7633
332
root -0.549665 16.3432 -17.653 -161.224 -15.2505 -182.607
lowerback -5.22588 -0.529027 -3.05305
upperback -2.74111 -0.744416 2.84612
thorax 0.177225 -0.395064 4.617
lowerneck -20.1713 -4.19129 -6.14766
upperneck 25.8733 -5.33051 2.16475
head 12.1007 -2.97143 0.919014
rclavicle -3.97569e-016 0
rhumerus 15.1564 45.2146 -38.454
rradius 56.331
rwrist 23.1438
rhand -22.5584 53.8897
rfingers 7.12502
rthumb 3.86957 23.9451
lclavicle -3.97569e-016 0
lhumerus 54.704 -56.9446 4.41409
lradius 74.9178
lwrist -46.223
lhand -35.8281 -6.80878
lfingers 7.12502
lthumb -8.94391 22.9816
rfemur -69.0357 9.15253 1.42287
rtibia 42.4171
rfoot -43.2714 -8.75375
rtoes 64.8006
lfemur -27.807 -6.75114 -29.6326
ltibia 41.7641
lfoot -24.0451 18.7964
ltoes -17.2843
333
root -0.548056 16.4439 -17.8517 -160.813 -15.9262 -182.758
lowerback -6.39451 -0.795265 -3.02607
upperback -2.23593 -1.08298 3.18643
thorax 1.38978 -0.596941 4.921
lowerneck -21.6099 -4.2215 -6.33855
upperneck 25.1844 -4.85883 1.63655
head 12.0869 -2.77475 0.81891
rclavicle 1.19271e-015 -4.13472e-014
rhumerus 13.6128 42.7398 -37.5504
rradius 53.8229
rwrist 24.3697
rhand -22.8231 53.6612
rfingers 7.12502
rthumb 3.61389 23.7121
lclavicle 1.19271e-015 -4.13472e-014
lhumerus 51.0169 -56.3364 5.25978
lradius 73.0027
lwrist -43.1948
lhand -35.0462 -5.32888
lfingers 7.12502
lthumb -8.18938 24.4924
rfemur -67.7473 9.09555 1.85089
rtibia 42.0979
rfoot -43.2081 -4.00667
rtoes 64.9455
lfemur -26.775 -6.71977 -29.2879
ltibia 40.406
lfoot -22.7572 17.9402
ltoes -21.2387
334
root -0.535726 16.5355 -18.0407 -159.722 -15.793 -183.331
lowerback -7.56071 -0.841547 -3.59472
upperback -2.25805 -1.09869 3.26851
thorax 2.02675 -0.625582 5.32065
lowerneck -22.266 -4.50827 -6.28643
upperneck 24.103 -4.85397 0.831343
head 11.7734 -2.81567 0.51411
rclavicle -4.23411e-014 -3.97569e-014
rhumerus 11.7509 40.5589 -36.8044
rradius 51.2217
rwrist 25.6565
rhand -23.498 53.9575
rfingers 7.12502
rthumb 2.9622 23.9983
lclavicle -4.23411e-014 -3.97569e-014
lhumerus 46.9361 -55.9395 6.54899
lradius 70.9905
lwrist -40.5486
lhand -35.3014 -6.72413
lfingers 7.12502
lthumb -8.43569 23.0874
rfemur -67.3673 8.5744 2.25682
rtibia 41.8677
rfoot -42.5887 -3.44011
rtoes 64.9176
lfemur -26.4036 -6.68259 -29.4078
ltibia 39.0029
lfoot -22.0028 16.6689
ltoes -21.7971
335
root -0.541717 16.648 -18.2192 -158.939 -16.3693 -183.069
lowerback -8.34578 -0.853682 -2.82275
upperback -2.4116 -1.19905 3.4629
thorax 2.30545 -0.692014 5.06724
lowerneck -24.4173 -4.68517 -6.89887
upperneck 24.6609 -4.70463 1.03295
head 12.4271 -2.74801 0.670914
rclavicle 8.15017e-015 3.65764e-014
rhumerus 9.84113 38.4046 -36.062
rradius 48.4528
rwrist 26.3901
rhand -23.8863 53.5108
rfingers 7.12502
rthumb 2.58713 23.5468
lclavicle 8.15017e-015 3.65764e-014
lhumerus 43.1626 -55.4076 7.52297
lradius 69.5702
lwrist -39.2645
lhand -35.738 -9.61194
lfingers 7.12502
lthumb -8.85699 20.1822
rfemur -66.5874 7.00469 4.43752
rtibia 41.77
rfoot -41.1958 -8.25221
rtoes 64.8869
lfemur -25.8858 -7.00182 -28.5306
ltibia 37.4825
lfoot -20.8112 15.6046
ltoes -22.2912
